<?xml version="1.0" encoding="UTF-8"?>
<svg xmlns="http://www.w3.org/2000/svg" version="1.1" viewBox="0 0 1748.3 432.6">
  <!-- Generator: Adobe Illustrator 30.2.1, SVG Export Plug-In . SVG Version: 2.1.1 Build 1)  -->
  <defs>
    <style>
      .st0 {
        fill: lime;
      }

      .st1 {
        fill: #fff;
      }
    </style>
  </defs>
  <g id="Layer_2">
    <g id="Layer_1-2">
      <path class="st1" d="M1576.7,302.1c-150.2,25.3-298,13.7-446.5-15.9-18.2-3.6-45.2-4.8-53.8,16.6-5.5,42.6-15,129.1-23.9,129.8-9,.6.8-31.8,7.6-80.8,4.6-11.1,9.9-60.4,9.3-72.8l-2-45.8c-.7-16-1.4-32-2.1-48l-68.3-2c-21.6-.6-43.2-1.3-64.8-1.9-7-.3-14-.6-21-.8-12.3-.5-24.6-1-36.9-1.4-57.2.1-114.4.2-171.6.3-36.8,0-73.7.1-110.6.2-35.8,0-71.6.1-107.4.2-20.9,0-38.1,1.6-68.5,2.8-12.7.5-65,1.3-110.7,4.6-41.8,3-133.2,10.8-154.8,15.2s-62.1,6.5-108.2,24.8l951.2.2c2.2,72.3,3.7,131.7-12.4,201.6-152.6.4-301.4-5.5-452.8-24.4C349.7,382.1,159.1,338.5,3.6,235.2c-4.8-.8-5.6-6.5,2.6-10.2l60.3-14.8c77.2-18.9,154.7-24.9,234.2-28.5l184.1-8.4c3.4-.2,9.6-.4,17.3-.7,30.4-1.2,123.1-4.7,276-2.7,6.9,0,25.4.3,51.6.9,101.5,2,184,5.2,241.3,7.9l5.1,108.4c17.1-6.9,29.5-11.7,44.6-8.8,151.5,29.6,303.3,44.6,456,17.2,10.1-1.8,25.8,5.9,30.7,14.2,9.1,15.6,9.7,32.6,10.4,51.2,41.2,19.1,89-2.4,110.1-44.6,12.5-25,16.9-53.9,13.1-81.8h-630.8c-5.9-18.2-5.9-34.4-4.3-55.2,147.4-8.6,295.7-6.9,446.5-3.7l153.2,3.3c32.6-1.1,35.3,15.5,39.5,35.1,2.3,10.3,3.2,22.8,3.2,22.8-2,33.8-2.7,64.7-19.8,92.8-25,41-76.4,55.1-117.8,36.2l-1.9-36.5c-.8-15.8-17.5-29.4-32-27h0ZM1740.2,227.1c.9-15-7.6-39.7-21.2-40l-250.3-6.2h-244.7c-37,0-72.4,2-109.4,5-5.1,14.4-5.5,30.1,3.2,41.3h622.4c0-.1,0-.1,0-.1ZM977.1,422.3c11.9-67,15.3-125.7,9.6-187.9l-967.1.3c71.1,53.5,146.5,78.1,222.8,104.6,96.2,28.5,190.6,47.2,290.4,59.3,147.9,17.9,294.1,24.9,444.3,23.8Z"/>
    </g>
    <g id="Layer_3">
      <g>
        <path d="M464.4,337.7c-.9,4.4-3.9,14.9-4.8,20.8h-58v-1.9c11.3-.5,12.3-2.8,12.3-14v-52.4c0-10.4-.9-12.7-12.8-13.3v-1.9h33.1v1.9c-12.1.7-13.3,2.9-13.3,13.3v50.5c0,14.1,3.2,14.5,16.8,14.5s14.4-1.6,17.5-4.8c1.7-2.4,4.8-6.9,6.9-12.8h2.4Z"/>
        <path d="M563.1,315.6c0,26.5-21.2,44.9-46.5,44.9s-44.1-18-44.1-42.7,17.3-44.8,47.1-44.8,43.6,16.7,43.6,42.5h0ZM481.8,314c0,26,16.4,43.3,38,43.3s34.3-12.4,34.3-36.1-16.9-44.9-38.4-44.9c-17.7.1-33.9,12-33.9,37.7h0Z"/>
        <path d="M661.7,276.9c-9.6,1.3-10.5,3.2-16.4,14.8-2.3,3.9-19.6,41.5-30.4,68.2h-1.7c-8.7-23.9-18.5-47.3-28-71.2-3.7-9.5-5.7-11.3-13.9-11.9v-1.9h28.8v1.9c-6.7.8-9.6,1.2-9.6,4.4s.4,2.7,1.2,4.7c2.9,7.7,13.2,34,24.5,61.2h.1c2.7-5.6,25.6-57.3,25.6-64.7s-3.2-4.4-10.1-5.6v-1.9h29.9v1.9Z"/>
        <path d="M732.2,337.7c-.9,4.4-3.9,14.9-4.8,20.8h-58v-1.9c11.3-.5,12.3-2.8,12.3-14v-52.4c0-10.4-.9-12.7-12.8-13.3v-1.9h33.1v1.9c-12.1.7-13.3,2.9-13.3,13.3v50.5c0,14.1,3.2,14.5,16.8,14.5s14.4-1.6,17.5-4.8c1.7-2.4,4.8-6.9,6.9-12.8h2.4Z"/>
        <path d="M922.4,294.4c-2.3-7.7-5.5-18.3-18.4-18.3s-14.4,6.3-14.4,14.9,8.1,15.6,16.8,20c5.9,2.9,22.3,8.7,22.3,25.3s-10.7,23.9-27.5,24.1c-5.5-.3-10.1-1.1-13.5-2.1-3.2-1.1-4.9-2-5.7-2.5-1.1-3.5-2.4-13.1-3.2-21.1h2.1c2.1,7.2,7.9,22.3,23.5,22.3s16.5-5.6,16.5-17.3-10.9-18-18-22c-1.2-.7-20.8-6.9-20.8-23.2s9.1-21.5,24.8-21.5,8.3.4,15.6,2.8c.5,4.5,1.2,9.5,2.1,18.5h-2.3,0Z"/>
      </g>
    </g>
  </g>
  <g id="Layer_31" data-name="Layer_3">
    <g>
      <rect class="st0" x="799.1" y="235.8" width="4.9" height="156.9" transform="translate(-27.2 547.5) rotate(-37.1)"/>
      <rect class="st0" x="723.1" y="310.7" width="157" height="4.9" transform="translate(79.1 780.7) rotate(-54.2)"/>
      <rect class="st0" x="751.4" y="374.7" width="100.3" height="6.8"/>
      <rect class="st0" x="751.4" y="245.6" width="100.3" height="5.5"/>
      <rect class="st0" x="847.1" y="248.3" width="4.4" height="132"/>
      <rect class="st0" x="751.4" y="247.2" width="4.4" height="132"/>
    </g>
    <g>
      <rect class="st0" x="799.1" y="235.8" width="4.9" height="156.9" transform="translate(-27.2 547.5) rotate(-37.1)"/>
      <rect class="st0" x="723.1" y="310.7" width="157" height="4.9" transform="translate(79.1 780.7) rotate(-54.2)"/>
      <rect class="st0" x="751.4" y="374.7" width="100.3" height="6.8"/>
      <rect class="st0" x="751.4" y="245.6" width="100.3" height="5.5"/>
      <rect class="st0" x="847.1" y="248.3" width="4.4" height="132"/>
      <rect class="st0" x="751.4" y="247.2" width="4.4" height="132"/>
    </g>
  </g>
</svg>