<?xml version="1.0" encoding="UTF-8"?>
<svg id="Layer_2" data-name="Layer 2" xmlns="http://www.w3.org/2000/svg" xmlns:xlink="http://www.w3.org/1999/xlink" viewBox="0 0 1471.39 942.99">
  <defs>
    <style>
      .cls-1 {
        fill: url(#linear-gradient-8);
      }

      .cls-2 {
        fill: url(#linear-gradient-7);
      }

      .cls-3 {
        fill: url(#linear-gradient-6);
      }

      .cls-4 {
        fill: url(#linear-gradient-9);
      }

      .cls-5 {
        fill: url(#linear-gradient-4);
      }

      .cls-6 {
        fill: url(#linear-gradient);
      }

      .cls-6, .cls-7, .cls-8, .cls-9, .cls-10, .cls-11 {
        stroke: #000;
        stroke-miterlimit: 10;
        stroke-width: .25px;
      }

      .cls-12 {
        fill: #009245;
      }

      .cls-7 {
        fill: url(#New_Gradient_Swatch_2);
      }

      .cls-8 {
        fill: url(#linear-gradient-13);
      }

      .cls-13 {
        fill: url(#linear-gradient-10);
      }

      .cls-14 {
        fill: url(#linear-gradient-11);
      }

      .cls-15 {
        fill: url(#linear-gradient-12);
      }

      .cls-16 {
        fill: url(#linear-gradient-14);
      }

      .cls-17 {
        fill: url(#linear-gradient-15);
      }

      .cls-18 {
        fill: url(#New_Gradient_Swatch_5);
      }

      .cls-9 {
        fill: url(#linear-gradient-3);
      }

      .cls-10 {
        fill: url(#linear-gradient-2);
      }

      .cls-11 {
        fill: url(#linear-gradient-5);
      }
    </style>
    <linearGradient id="linear-gradient" x1="1274.59" y1="598.82" x2="1471.27" y2="598.82" gradientUnits="userSpaceOnUse">
      <stop offset="0" stop-color="#ed1c24"/>
      <stop offset="1" stop-color="#9d0000"/>
    </linearGradient>
    <linearGradient id="linear-gradient-2" x1="1274.59" y1="389.03" x2="1471.27" y2="389.03" gradientUnits="userSpaceOnUse">
      <stop offset=".56" stop-color="#009245"/>
      <stop offset=".81" stop-color="#005f00"/>
    </linearGradient>
    <linearGradient id="linear-gradient-3" x1="1274.59" y1="493.92" x2="1471.27" y2="493.92" gradientUnits="userSpaceOnUse">
      <stop offset="0" stop-color="#f7931e"/>
      <stop offset="1" stop-color="#df4400"/>
    </linearGradient>
    <linearGradient id="linear-gradient-4" x1="252.13" y1="403.58" x2="614.01" y2="403.58" gradientUnits="userSpaceOnUse">
      <stop offset=".56" stop-color="#009245"/>
      <stop offset="1" stop-color="#005f00"/>
    </linearGradient>
    <linearGradient id="New_Gradient_Swatch_5" data-name="New Gradient Swatch 5" x1="609.21" y1="154.52" x2="1125.06" y2="154.52" gradientUnits="userSpaceOnUse">
      <stop offset=".56" stop-color="#009245"/>
      <stop offset=".81" stop-color="#005f00"/>
    </linearGradient>
    <linearGradient id="linear-gradient-5" x1="354.97" y1="838.58" x2="868.27" y2="838.58" gradientTransform="translate(29.81 -39.41) rotate(2.51) scale(1.02)" xlink:href="#linear-gradient-4"/>
    <linearGradient id="linear-gradient-6" x1="789.52" y1="365.14" x2="1063.5" y2="365.14" xlink:href="#linear-gradient-2"/>
    <linearGradient id="linear-gradient-7" x1="542.71" y1="291.39" x2="688.34" y2="291.39" xlink:href="#linear-gradient"/>
    <linearGradient id="linear-gradient-8" x1="497.14" y1="246.57" x2="613.06" y2="246.57" xlink:href="#linear-gradient"/>
    <linearGradient id="linear-gradient-9" x1="473.45" y1="551.12" x2="739.46" y2="551.12" xlink:href="#linear-gradient"/>
    <linearGradient id="New_Gradient_Swatch_2" data-name="New Gradient Swatch 2" x1="649.43" y1="621.48" x2="1012.72" y2="621.48" gradientTransform="translate(27.78 -35.51) rotate(2.49)" gradientUnits="userSpaceOnUse">
      <stop offset="0" stop-color="#ed1c24"/>
      <stop offset="1" stop-color="#9d0000"/>
    </linearGradient>
    <linearGradient id="linear-gradient-10" x1="67.21" y1="350.43" x2="422.84" y2="350.43" xlink:href="#linear-gradient"/>
    <linearGradient id="linear-gradient-11" x1="354.53" y1="164.12" x2="637.91" y2="164.12" gradientTransform="translate(3.31 -68.96) rotate(4.23) scale(1.03 1.11)" xlink:href="#linear-gradient"/>
    <linearGradient id="linear-gradient-12" x1="0" y1="158.47" x2="365.43" y2="158.47" xlink:href="#linear-gradient-3"/>
    <linearGradient id="linear-gradient-13" x1="905.46" y1="508.03" x2="1218.89" y2="508.03" xlink:href="#linear-gradient-3"/>
    <linearGradient id="linear-gradient-14" x1="644.36" y1="382.45" x2="905.46" y2="382.45" xlink:href="#linear-gradient-3"/>
    <linearGradient id="linear-gradient-15" x1="182.72" y1="613.63" x2="475.47" y2="613.63" xlink:href="#linear-gradient-3"/>
  </defs>
  <g id="baggrund">
    <rect class="cls-6" x="1274.59" y="554.89" width="196.68" height="87.86"/>
    <rect class="cls-10" x="1274.59" y="345.1" width="196.68" height="87.86"/>
    <rect class="cls-9" x="1274.59" y="449.99" width="196.68" height="87.86"/>
  </g>
  <g id="Grøn">
    <path class="cls-5" d="M252.73,425.17c-2.41-10.65,2.99-19.72,4.58-22.39,5.21-8.74,10.52-9.23,22.78-21.91,11.22-11.61,7.97-12.44,14.56-17.5,12.1-9.31,21.79-5.49,48.73-13.63,12.67-3.82,27.2-8.21,40.5-18.49,6.18-4.78,14.52-12.7,22.15-19.95,9.99-9.49,12.28-12.36,18.35-14.11,10.91-3.14,14.9,2.82,27.21,0,13.01-2.98,23.84-13.14,23.84-13.14h0s6.34,3.39,7.17,3.87c7.33,4.17,4.61,19.08,6.85,39.45,1.07,9.7,2.57,14.39,7.07,18.37,2.96,2.62,6.24,4.08,12.66,6.93,9.2,4.09,12.55,4.21,20.25,7.3,11.94,4.79,10.13,7.02,19.62,10.71,10.88,4.23,13.08,1.23,29.75,5.35,9.09,2.25,17.83,4.5,25.32,10.71,1.92,1.59,6.6,5.56,8.86,11.68,1.72,4.65.94,7.55,0,15.09-1.91,15.33-3,24.17-3.16,34.06-.09,5.69.18,8.46-2.53,10.22-3.69,2.4-8.4.01-23.42,0-10.65,0-13.82,1.19-15.82,2.32-3.78,2.14-3.39,4.07-6.96,6.44-5.47,3.63-11.76,2.65-17.2,3.37-12.23,1.61-14.86,11.09-26.47,20.48-7.25,5.86-8.52,4.03-44.93,18.01-33.09,12.71-35.18,15.43-43.67,14.6-16.71-1.63-16.96-13-39.87-20.13-14.41-4.49-27.27-4.03-43.04-3.46-33.74,1.21-43.08,9.61-56.33,3.46-9.05-4.2-16.13-13.44-17.72-21.72-.5-2.61-.06-3.05-.63-11.34-.51-7.45-.9-13.07-1.9-17.37-3.35-14.46-13.77-14.69-16.61-27.25Z"/>
    <path class="cls-18" d="M681.94,17.63c.38,1.32.87,2.83,1.74,3.7,1.74,1.76,8.5-.06,12.92,2.44,3.6,2.04-2.1,15.08,2.16,22.16,3.75,6.24,13.5,8.22,20.02,12.08,5.05,2.99,10.42,6.2,14.71,9.3,2.8,2.02,3.52,4.8,8.26,5.06l14.2.8c3.02.17,9.46,3.28,10.06,5.52l5.12,19.02c.7,2.59,6.94,4.66,10.4,5.73,13.46,4.17,13.31,12.76,30.77,21.11,3.86,1.84,15.67,2.27,17.74-1.51,6.01-10.97,11.48-21.58,15.87-32.76,6.07-15.45,20.69-8.93,24.42-14.92,7.17-11.5,9.22-19.11,14.15-27.14l8.26-13.47c22.54-.39,47.35-3.79,57.96,13.2,1.9,3.04,4.74,5.85,7.43,8.7,3.41,3.61,6.22,9.79,14.7,9,4.21-.39,9.02-5.48,12.1-7.81l15.69-11.86c16.5-12.47,38.8-20.64,63.06-17.04,9.52,1.41,18.04,4.81,26.11,8.24l20.59,8.74,14.69,6.65c-18.88,4.62-28.87,14.64-36.64,26.37-3.66,5.53-15.11,3.34-20.36.38-5.1-2.87-9.75-4.74-16.4-6.32-4.48,7.47-1.72,14.44,2.94,21.04l9.29,13.18c-2.71,4.37-8.48,7.35-14.39,8.86-51.55,13.22-56.43,40.67-106.18,46.58l-34.02,4.04c-11.19,1.33-12,51.64-12.06,60.12l-.07,9.77c-.03,3.96-3.97,21.92-2.43,30.13-22.1,9.66-5.2,16.35-13.28,20.68-3.39,1.81-5.17,1.42-9.15.83-14.58-2.15-24.11-9.09-26.62-19.47l-4.51-18.72c-.63-2.63-2.07-4.55-4.41-6.25l-1.39-2.78c-2-4.01-35.3,10.67-38.26,11.73l-28.43,10.12-4.99-6.48c-1.16-1.5-3.97-3.9-5.99-4.31-4.61-.93-13.63,5.23-16.1,7.23l-39.76,32.14c-11.46-6.51-21.22-13.03-31.69-20.43-6.33-4.48-7.41-12.12-7.28-18.72l.59-28.87.87-16.42c.27-5.08,3.56-17.97-4.45-19.53-9.51-1.86-19.57,11.35-27.6,17.33l-11.73-29.51c-2.33-5.86-4.27-10.92-9.43-16.13-4.11-4.14-.91-10.11,3.27-14.05l40.66-38.39c5.36-5.06,11.04-9.63,15.63-15.32,2.54-3.14-3.96-7.58-7.43-8.93l-2.22-5.18c3.57-.97,6.47-1.87,8.42-2.98,1.63-.93,1.42-4.77-.07-5.61-2.39-1.34-5.8-3.29-6.66-4.65-2.24-3.54,7.07-12.8,1.66-17.67-7.82-7.04-21.27-4.73-28.79-12.97,6.49-9.52,13.57-9.82,20.77-15.77h25.6Z"/>
    <path class="cls-11" d="M634.97,721.74l-23.54,18.28-38.58,29.21-12.77,9.3-19.71,14.65-7.65,5.75-11.51,9.35c-6.6,5.37-12.74,10.71-18.74,16.37l-10.72,10.11-32.57,31.32-16.38,15.02-18.96,17.19-6.48,5.96-13.37,11.95c-2.2,1.97-3.96,4.5-7.49,5.23l-26.22,5.39c-5.52,1.14-16.82,1.32-19.19,5.86-2.19,6.75,9.99,10.23,17.52,10.19l22.33-.12c14.9-.08,42.96-9.22,55.87-14.62,10.72-4.48,21.35-6.12,34.16-4.92,10.08.94,20.35.41,30.56.78l52.56,1.88,19.94-.65,44.27,1.29,17.65-.43,16.26.14c13.08.11,25.54-.15,38.51.1l29.93.58c9.7.19,29.05-5.13,38.4-8.56,4.92-1.8,9.81-4.56,14.41-6.77l14.59-7.01c10.75-5.17,21.41-9.58,32.45-14.36l20.33-8.8c10.36-4.48,20.72-8.64,26.15-17.08,2.07-3.23.61-8.38,1.02-12.01.89-7.81,1.54-15.14,1.66-23.24.05-3.52,1-6.98,1.54-10.48,1.34-8.7,1.66-17.7,1.18-26.54-.15-2.76-.99-5.67-.7-8.49.33-3.25-.57-6-1.36-9.01l-3.34-11.78"/>
    <path class="cls-12" d="M517.17,780.95c-11.54,5.62-23.99,15.66-23.96,9,.03-4.82-1.65-11.2-2.27-16.03-1.03-8.03-5.72-13.31-18.58-14.51-4.51-.42-9.86-1.32-15.16-1.21-2.81.06-7.07-.31-8.73-1.29-1.53-.9-2.31-3.52-2.39-5.26l-1.42-34.16c-.38-9.11,14.95-9.29,6.8-19.11l-15.01-18.1-11.2-13.81c11.63-2.39,17.24-1.91,34.62-4.53,4.47-.68,12.15.33,14.93-3.6,2.3-3.25-.56-7.92-1.51-11.39l-2.95-10.76-3.11-11.35-2.92-10.69-3.18-11.66-2.81-9.68c-.57-1.96-1.07-4.21-1.46-6.31l-1.43-7.62,18.79-2.51c5.8-.77,13.95-1.03,19.92-.86l20.85.6,39.75,1.04-2.69,11.32-2.65,10.1-3.2,9.6-5.97,19.22c-1.49,4.81-3.96,10.45-.13,15.23,2.08,2.6,10.23,1.88,13.97.51l50.69-18.55c.83-.3,3.41-1.18,3.85-.7,5.43,5.94-6.31,12.44,14,17.11l20.88,4.8,16.72,3.78-4.28,6.5-13.21,22.52-4.6,7.62c-15.35,25.44-40.45,44.04-68.39,64.07-9.14,6.55-33.03,21.17-43.21,26.12l-9.31,4.53Z"/>
    <path class="cls-3" d="M941.85,440.01l-19.78,15.79c-26.68,21.3-81.81,44.71-122.88,31.98-4.23-1.31-11.24-5.09-9.35-9.22,4.14-9.06,27.41-26.88,37.42-33.75l20.96-14.38,21.34-15.62c22.29-16.32,38.18-35.98,44.02-59.1,2.4-4.79,4.25-9.7,5.51-14.72l7.01-27.92,1.87-8.47c3.32-15.04,4.65-30.19,4.17-45.21-.31-9.62,8.67-13.53,18.83-14.79l38.38-4.78c7.46-.93,25.11-1.19,29.66-.66l33.65,3.9c5.08,2.71,8.7,9.48,10.84,14.48l-11.18,7.95c-5.77,4.1-13.09,7.27-16.88,13.04.98,8.82-1.66,13.47-6.48,20.92-14.94,13.58-35.4,3.74-42.35,15.7-4.02,6.91-5.16,14.37-7.29,21.76l-3.76,13.04c-3.57,12.36-6.15,24.39-9.26,36.84l-5.74,23.01c-1.78,7.15-4.41,13.8-9.5,19.96-2.65,3.21-5.68,7.44-9.2,10.25Z"/>
  </g>
  <g id="rød">
    <path class="cls-2" d="M685.88,310.92c-16.44,18.15-44.17,49.09-61.06,66.53l-11.87-8.01c-22.17-10.55-49.09.44-70.23-23.45l28.26-39.52c-.95-3.76,0-1.97,3.07-4.27,4.14-7.89,67.05-87.13,63.47-94.55,3.04-4.07,11.18-2.5,12.96,2.51,6.25,11.08,1.1,16.3-5.48,29.13-10.28,19.48,3.66,21.13,6.87,29.42,4.88,7.81,17.02,23.12,25.74,28.84,0,0,8.18,6.44,8.18,6.44,3.15,2.54,3.64,3.72.1,6.94Z"/>
    <path class="cls-1" d="M548.33,309.91c-6.24,8.48-11.61,16.87-18.42,24.74-9.2-.02-19.39-4.91-23.03-11.48-4.83-8.72,7.74-14.03,1.17-29.92l-2.16-5.22c-5.57-13.48-13.18-16.71-5.5-45.06,1.68-6.2,5.1-12.51,8.09-18.72,14.26-29.66,41.95-51.79,78.63-64.03,1.95-.65,5.4-2.01,7.07-1.69s2.85,3.4,3.45,4.99l3.71,9.94,6.48,18.53c.57.48,2.88,1.37,2.76,1.91-2.17,9.36,1.87,8.15,2.39,13.74.91,9.73-5.08,21.22-11.04,28.6-14.06,17.42-26.91,35.12-38.72,53.32-1.44,2.21-2.85,4-4.44,6.16l-10.45,14.2Z"/>
    <path class="cls-4" d="M572.26,558.69c-.63-5.43-12.84-6.27-17.92-5.72-5.92.63-11.04-.38-16.26-.62l-21.82-.98-17.8-.64c-3.72-.13-11.34-.78-14.52-1.86-10.24-3.51-12.89-13.59-8.38-20.25,2.18-1.27,7.61-2.83,9.84-3.89l29.81-14.16c5.17-2.45,14.15-3.59,18.07-7.63,26-26.8,40.33-18.33,49.62-25.32,5.13-3.86,9.11-6.01,16.66-6.34l6.93-4.8c28.3,8.52,29.14-1.09,40.69.54,5.69.8,10.24,5.51,14.74,7.61,9.49,4.44,18.32-7.71,23.99-8.97,3.64,3.53,7.23,6.49,10.39,10.07l13.39,15.18,21.4,23.69c2.9,3.21,5.47,6.63,8.37,10.24l-12.98,20.94-42.08,67.21-13.77,20.86c-1.88,2.85-6.63,3.22-10.25,2.2l-16.35-4.63c-5.29-1.5-12.52-4.2-12.82-9.01l-.78-12.5c-.19-3.07-2.66-5.83-6.36-7.69-3.45-1.73-8.34-.63-12.6,1.42-3.66,1.76-7.52,2.89-11.4,4.4l-42.5,16.48c-3.4-1.79-.3-6.18,1.98-14.22l6.17-21.71c2.78-9.79,6.65-20.13,6.55-29.88Z"/>
    <path class="cls-7" d="M875.12,750.85c14.27,1.08,44.11-3.34,54.13-5.77l52.38-12.71,11.93-2.55c5.03-1.08,11.31-2.54,14.81-4.33l-2.45-9.23c-2.43-9.16-20.42-70.01-20.92-79.84l-4.96-6.87c-2.27-6.03-4.54-12.06-6.81-18.09-4.33-11.5-9.68-21.33-17.73-31.51l-21.1-26.69-7.07-9.33-13.04-16.6c-5.34-6.79-10.81-13.13-15.85-20.09-2.16-2.98-4.81-5.66-7.21-8.39-16.95,2.67-30.23,4.88-41.77,7-3.87.71-14.57,2.7-26.67,1.93-5.22-.33-9.07-1.07-11.15-1.52-2.51-.55-7.58-1.71-12.96-4.18-10.35-4.74-14.26-10.54-18.01-10.26-1.12.08-2.69.79-4.25,2.97-3.5,4.38-6.99,8.76-10.49,13.14-3.81,4.77-7.62,9.54-11.43,14.32-7.13,8.94-13.2,18.51-19.07,28.27l-3.84,6.39c-5.41,9.46-10.83,18.92-16.24,28.38-3.48,6.01-6.97,12.03-10.45,18.04-3.43,5.92-6.85,11.83-10.28,17.75l-12.79,22.13c-2.36,4.08-4.2,7.86-6.58,12.04l-13.1,23.01-6.35,13.27c-3.45,7.22-6.49,12.38-10.34,17.11"/>
    <path class="cls-13" d="M146.31,476.76c-4.86-6.05-7.47-11.88-9.46-18.42-4.6-15.14-18.26-26.66-22.83-34.7-13.35-23.48-20.38-47.26-27.08-72.49l7.18-14.22c-.27-6.06-5.13-11.8-9.19-16.73l-15.21-18.44c-4.21-5.11-2.39-12,.13-17.63l65.02,13.09c5.2,1.05,11.7,1.34,16.95.36l42.8-7.92c13.01-2.41,21.82-.12,34.41,2.47,24.84,5.11,54.82-10.81,72.23,5.89,2.39,2.29,9.99,4.86,12.97,2.7,5.24-3.79,8.49-8.48,11.52-13.24l27.06-42.57,12.73-20.8,21.9,32.67c7.08,10.57,16.8,19.97,28.18,28.12,2.28,1.63,5.54,2.98,7.22,5.05-8.38,6.97-18.06,12.55-25.6,19.73s-13.78,13.23-25.19,17.33l-41.23,14.83-29.84,10.83c-9.15,3.32-18.31,6.65-25.24,12.25l-19.18,15.48-15.45,12.29c-7.32,5.82-11.23,23.53-18.87,32.46-7.38,8.62-29.61,17.54-32.48,26.45l-6.3,19.58-37.18,5.6Z"/>
    <path class="cls-14" d="M564.21,158.31l-15.59,8.35c-5.03,2.69-11.7,6.5-15.68,9.97l-11,9.61c-9.96,8.7-16.18,18.92-22.54,29.69-24.27,41.12-7.26,54.35-33.45,63.09l-11.11,3.71c-3.67,1.23-7.42,2.14-11.05,3.88-1.93.92-4.94,2.28-6.58,2.17-6.56-.46-32.19-30.97-37.03-38.67-6.18-9.85-12.27-19.83-16.16-29.87l-5.14-13.23c-13.6-35.04-27.85-24.55-26.29-45.29,1.12-14.86-1.79-21.7,15.19-28.64,7.43-13.32,12.52-26.67,17.65-42.04-7.13-6.72-21.61-8.17-23.64-14.61-1.34-4.24-.03-7.09,2.14-10.81l9.64-16.49,5.97-10.41c6.75-11.77,12.5-23.09,19.92-34.56,1.76-2.72,7.21-5.24,10.14-3.64,19.02,10.37,35.17,9.24,56.74,8.28l14.86-.66c2.89-.13,9.61,1.52,12.19,2.88,16.68,8.84,17.63,26.05,27.85,30.87,4.21,1.99,13.43,2.74,17.31,1.01,7.51-3.36,12.89-3.67,20.67-1.45,11.9,3.4,37.57,10.55,48.96,11.64l30.79,2.95c1.51.14,4.34,1.61,5,2.39,3.21,3.7-10.08,9.19-.72,18.02l7.47,7.04-16.21,15.06-23.35,24.26c-8.48,8.81-23.66,22.1-34.39,28.28l-12.57,7.24Z"/>
  </g>
  <g id="orange">
    <path class="cls-15" d="M274.29,282.06c-4.29.61-36.61,3.61-39.57,1.1l-9.89-7.9-27.67,6.43c-15.88,3.69-31.38,7.74-47.87,9.32-9.57.92-20.02-4.3-28.89-6.52l-41.54-10.38c-2.79-.7-4.73-4.14-5.01-6.46l-1.97-16.34c-1.01-8.41-2.93-15.71-14.33-16.25-2.26-.11-6.36-1.13-9.32-1.89-12.34-3.17-23.14-8.47-31.61-18.31-9.05-10.51-10.5-24.6-13.46-37.82-1.62-7.24-4.68-14-2.3-21.69l17.57-10.01c9.95-5.67,13.81-16.31,12.75-26.78,10.78-17.39,24.87-2.62,43.4-28.94,2.96-.45,8.24-1.65,10.78-1.51,31.8,4.99,25.33,4.21,42.97-9.31,6.71-5.14,14.73-10.26,15.09-19.87.13-3.65,1.11-9.48,4.87-12.31,18.09-13.65,38.06-30.96,58.67-13.4,3.48,2.96,7.49,6.1,11.33,8.77,5.74,3.99,16.01,1.9,22.09,4.99,5.31,2.69,9.87,6.23,14.91,9.36,14.98,9.3,25.64,5.13,34.8,16.35,9.9,4.72,21.7-.95,31.89-1.97l9.59-.96,11.19-1.04c-1.74,13.59,1.7,19.78,14.33,23,2.89.74,6.67,3.14,7.71,5.44.93,2.06.74,6.52-.09,9.04-6.67,20.25-5.18,16.68-23.95,33.39-1.39,11.63.62,22.93,2.27,35.04,2.41,17.66,23.78,15.02,12.83,36.4l-28.04,54.76-10.34,20.55c-5.58,11.09-7.75-9.35-30.53-6.12l-12.66,1.8Z"/>
    <path class="cls-8" d="M1218.89,598.98l-18.24-13.63-19.31-13.63c-7.05-4.98-13.07-11.18-15.66-18.51-5.72-16.27-12.98-31.3-24.24-45.67-11.29-14.41-29.12-22.77-42.64-40.56l20.95-5.44,19.5,25.87c4.43,3.36,18.87,2.87,22.72-.68l6.78-6.25c-.44-1.9-.48-4.42.28-6.5l21.06-57.94,2.5-7.92c-5.67-2.8-14.83-5.92-21.63-4.96-8.37,6.45-31.2,17.33-41.43,10.54-2.5-1.66-3.59-5.51-3.75-7.96-1.12-16.54,20.14-13.78,23.42-20.54,2.53-5.21-2.31-9.9-4.47-14.31-1.33-2.73-2.69-4.26-4.83-6.34l-16.78-16.29c-1.31-1.27-3.95-3.36-5.83-4.95-1.82-1.54-7.57.8-10.24,1.97-21.82,9.53-47.35,20.28-50.06,42.33l42.7,60.63c1.36,1.94.14,5.25-1.47,6.3-1.96,1.28-6.36,3.13-8.95,2.88l-26.09-33.18-5.68-7.09-19.56-23.92c-.7-.86-.85-3.45-.93-4.18-2.22-.23-7.7-5.13-6.1-6.97l35.76-25.62,10.69-7.47,15.18-10.81,14.18-10.29,11.82-8.47-22.32-26.55c-9.16.56-42.86,12.26-49.92,16.2l-22.75,12.68-6.22,3.64c-2.39,1.4-6.42,4.72-8.8,6.29-13.4,2.96-22.38,11.08-23.57,22.09l-4.12,38.24-8.65,45.21c-.34,1.79-2.89,4.49-4.38,5.94l-14.63,14.41c-11.91,11.73-24.63,22.48-40.65,31.03-3.28,1.75-9.32,4.77-6.15,8.77l16.03,20.22,10.37,12.92c1.6,1.99,13.43,15.58,16.59,19.16l20.55,23.26,5.84,6.77c7.73,8.96,13.98,18.65,17.94,29.07l10.99,28.87-.7-.61c8.83,18.48,23.56,71.59,28.48,75.53,5.11,4.09,10.96,7.23,16.71,10.64,3.4-.5,7.04-2.74,10.26-4.05l21.87-8.89c-3.9-5.53-8.75-11.14-9.46-16.62-1.22-9.4,28.44-13.2,38.55-10.72l7.8,5.65,64.53-19.41c14.35-4.32,24.63-5.78,33.06-16.67-6.27-7.34-14.24-14.53-16.2-23.39-1.29-5.86,14.57-25.23,19.31-30.12Z"/>
    <path class="cls-16" d="M744.74,508.03c-4.09-.13-5.45-3.68-7.31-5.93l-22.72-27.45-18.87-22.64c-2.89-3.47-9.27-3.07-13.21-1.36l-13.7,5.97c-12.87-15.12-27.11,4.93-24.19-9.34l2.95-14.42c1.21-5.9,1.51-11.26,2.87-17.09,1.4-6.05,2.57-12.61,2.7-18.68.07-3.2-8.24-7.26-4.27-11.27,5.72-5.77,11.63-11.69,17.09-17.9l37.13-42.29,11.78-13.42,11.1-12.81c10.14-11.69,12.98-19.8,30.7-28.39l4.97,5.57c7.88,2.05,15.28-1.02,22.35-3.79l40.49-15.9c1.4,3.93,2.43,9.13,2.99,14.04,1.81,16.11,17.37,27.19,36.8,29.64,8.01,1.01,21.63,6.47,30.58-2.86l9.96-10.38c1.37,9.39-.18,16.99-1.98,25.8l-2.62,12.8c-.85,4.15-1.91,8.08-3.06,12.23l-2.82,10.18-3.07,11.12c-3.66,13.28-8.61,26.6-18.02,37.87-20.06,24.04-51.47,39.51-73.79,58.82l-15.21,13.16-10.93,9.48c-10.45,9.06-18.67,18.91-28.7,29.26Z"/>
    <path class="cls-17" d="M410.69,658.61l13.23,24.88,9.48,17.02c3.71,6.66,7.19,12.93,1.18,19.93l.08,55.82-51.07,17.75c-5.94,2.07-11.03,4.31-18.11,3.62l-16.14-16.91-11.74-13.24c-3.44-3.88-6.12-8.11-8.38-12.54l-5.85-11.48c-13.66-6.59-15.43-5.33-25.91-15.85-9.52-9.56-19.57-18.14-33.04-23.89-1.28-1.93-4.56-5.27-5.3-6.99-5.45-12.67-16.9-33.52-28.58-42.41l-22.69-17.27c-5.18-3.94-9.66-9.32-13.62-14.23-9.91-12.3-13.26-27.19-10.69-41.55,1.1-6.13,2.24-17.89,2.22-24.18l-.2-57.69c-.03-8.72,13.96-2.9,11.16-17.34-1.25-6.46-1.85-15.02,2.04-20.95l8.11-12.37,7.42-5.88c4.43-4.79,9.83-7.35,16.53-9.86l9.38-3.51,5.89,9.17c8.86,13.78,15.87,30.49,14.79,46.2-.53,7.72,5.06,2.22,10.47,19.7l3.67,11.87c3.26,10.53,30.63,2.47,43.84,1.37l21.45-1.78c13.21-1.1,25.76-3.68,37.79,1.76,9.03,4.08,19.16,6.99,28.63,10.79,10.63,4.26,20.11,9,32.37,10.76,13.95-2.56,14.2-5.37,26.78-7.34l9.52,18.43c.53,1.29-3.71,2.92-5.65,3.23l-10.86,1.76c-4.3.7-10.66,1.56-13.26,4.16-4.69,4.69-1.58,10.03-.47,14.85l3.39,14.66,2.87,11.19,3.12,15.63,2.53,10.51c2.34,9.73,6.1,18.13,5.22,24.17-8.25,3.23-16.61,4.78-25.45,3.22-6.13-4.09-15.39-8.18-23.55-7.25-6.89.78-4.46,8.61-2.63,12.04Z"/>
  </g>
</svg>