<?xml version="1.0" encoding="UTF-8"?>
<svg id="Layer_2" data-name="Layer 2" xmlns="http://www.w3.org/2000/svg" viewBox="0 0 1748.3 432.6">
  <defs>
    <style>
      .cls-1 {
        fill: none;
      }

      .cls-2 {
        fill: #fff;
      }
    </style>
  </defs>
  <g id="Layer_2-2" data-name="Layer 2">
    <g id="Layer_1-2" data-name="Layer 1-2">
      <path class="cls-1" d="M307.89,4.58c76.81,1.18,153.63.33,230.43-.53,121.7-1.35,243.39-2.7,365.09-4.05"/>
      <path class="cls-2" d="M1576.74,302.12c-150.18,25.32-298.01,13.72-446.52-15.86-18.22-3.63-45.21-4.83-53.8,16.58-5.52,42.57-14.96,129.15-23.93,129.75-8.97.61.82-31.79,7.61-80.76,4.6-11.1,9.86-60.42,9.3-72.83l-2.04-45.8c-.71-15.99-1.42-31.97-2.14-47.96l-68.33-2.03c-21.6-.64-43.2-1.28-64.79-1.93-7.01-.28-14.02-.55-21.02-.83-12.3-.48-24.61-.97-36.91-1.45-57.21.1-114.42.2-171.63.31-36.85.07-73.71.13-110.56.2-35.8.06-71.61.13-107.41.19-20.87.07-38.08,1.65-68.54,2.75-12.73.46-64.95,1.33-110.73,4.58-41.77,2.97-133.17,10.75-154.84,15.17s-62.14,6.53-108.23,24.81l951.15.23c2.15,72.33,3.68,131.68-12.36,201.58-152.61.43-301.4-5.48-452.83-24.42C349.66,382.07,159.08,338.55,3.61,235.16c-4.81-.8-5.63-6.54,2.62-10.2l60.31-14.8c77.18-18.94,154.72-24.85,234.18-28.46l184.05-8.35c3.43-.16,9.59-.43,17.26-.74,30.4-1.24,123.07-4.68,275.97-2.7,6.93.09,25.41.34,51.64.85,101.55,1.97,184,5.21,241.33,7.87l5.14,108.41c17.14-6.86,29.52-11.72,44.64-8.77,151.53,29.59,303.32,44.61,456,17.18,10.09-1.81,25.84,5.88,30.74,14.23,9.12,15.56,9.69,32.56,10.41,51.16,41.17,19.1,89.01-2.4,110.13-44.6,12.5-24.97,16.91-53.9,13.07-81.83l-630.84.02c-5.88-18.26-5.91-34.38-4.27-55.26,147.36-8.56,295.65-6.9,446.48-3.67l153.17,3.28c32.56-1.12,35.33,15.47,39.5,35.07,2.28,10.29,3.16,22.78,3.16,22.78-1.98,33.81-2.69,64.71-19.84,92.81-25.03,41.03-76.4,55.1-117.83,36.18l-1.92-36.55c-.83-15.8-17.49-29.4-31.98-26.95h0ZM1740.2,227.11c.9-15.03-7.56-39.65-21.19-39.99l-250.29-6.18-244.65.04c-36.97,0-72.42,1.96-109.44,5-5.13,14.41-5.49,30.13,3.22,41.27l622.36-.15h0ZM977.1,422.29c11.93-66.96,15.29-125.69,9.56-187.93l-967.1.28c71.1,53.46,146.48,78.13,222.77,104.6,96.24,28.51,190.57,47.21,290.43,59.28,147.87,17.88,294.1,24.85,444.34,23.77Z"/>
    </g>
    <g id="Layer_3" data-name="Layer 3">
      <g>
        <g>
          <path d="M464.43,337.72c-.93,4.4-3.87,14.93-4.8,20.8h-57.99v-1.87c11.33-.53,12.26-2.8,12.26-14v-52.39c0-10.4-.93-12.66-12.8-13.33v-1.87h33.06v1.87c-12.13.67-13.33,2.93-13.33,13.33v50.52c0,14.13,3.2,14.53,16.8,14.53,8,0,14.4-1.6,17.46-4.8,1.73-2.4,4.8-6.93,6.93-12.8h2.41Z"/>
          <path d="M563.07,315.6c0,26.53-21.2,44.93-46.52,44.93s-44.13-18-44.13-42.66c0-22.4,17.33-44.79,47.06-44.79,22.26,0,43.59,16.66,43.59,42.53h0ZM481.75,313.99c0,26,16.4,43.33,37.99,43.33,18,0,34.26-12.4,34.26-36.13,0-30.26-16.93-44.93-38.39-44.93-17.73.13-33.86,12-33.86,37.73h0Z"/>
          <path d="M661.71,276.94c-9.6,1.33-10.53,3.2-16.4,14.8-2.27,3.87-19.6,41.46-30.39,68.25h-1.73c-8.67-23.86-18.53-47.32-28-71.19-3.73-9.46-5.73-11.33-13.86-11.86v-1.87h28.79v1.87c-6.67.8-9.6,1.2-9.6,4.4,0,1.2.4,2.67,1.2,4.67,2.93,7.73,13.2,33.99,24.53,61.19h.13c2.67-5.6,25.6-57.32,25.6-64.66,0-4-3.2-4.4-10.13-5.6v-1.87h29.86v1.87Z"/>
          <path d="M732.23,337.72c-.93,4.4-3.87,14.93-4.8,20.8h-57.99v-1.87c11.33-.53,12.26-2.8,12.26-14v-52.39c0-10.4-.93-12.66-12.8-13.33v-1.87h33.06v1.87c-12.13.67-13.33,2.93-13.33,13.33v50.52c0,14.13,3.2,14.53,16.8,14.53,8,0,14.4-1.6,17.46-4.8,1.73-2.4,4.8-6.93,6.93-12.8h2.41Z"/>
          <path d="M922.43,294.4c-2.27-7.73-5.47-18.26-18.4-18.26-9.6,0-14.4,6.27-14.4,14.93,0,11.2,8.13,15.6,16.8,20,5.87,2.93,22.26,8.67,22.26,25.33,0,13.86-10.66,23.86-27.46,24.13-5.47-.27-10.13-1.07-13.46-2.13-3.2-1.07-4.93-2-5.73-2.53-1.07-3.47-2.4-13.06-3.2-21.06h2.13c2.13,7.2,7.87,22.26,23.46,22.26,10.26,0,16.53-5.6,16.53-17.33,0-13.46-10.93-18-18-22-1.2-.67-20.8-6.93-20.8-23.2,0-11.06,9.07-21.46,24.8-21.46,4.4,0,8.27.4,15.6,2.8.53,4.53,1.2,9.47,2.13,18.53h-2.27.01Z"/>
        </g>
        <rect x="751.42" y="247.18" width="4.41" height="131.97"/>
        <rect x="847.14" y="248.33" width="4.41" height="131.97"/>
        <rect x="751.41" y="245.57" width="100.3" height="5.52"/>
        <rect x="751.42" y="374.69" width="100.3" height="6.85"/>
        <rect x="723.07" y="310.74" width="156.95" height="4.88" transform="translate(79.07 780.72) rotate(-54.25)"/>
        <rect x="799.11" y="235.79" width="4.88" height="156.95" transform="translate(-27.2 547.55) rotate(-37.13)"/>
      </g>
    </g>
  </g>
</svg>